<svg width="60" height="13" viewBox="0 0 60 13" fill="none" xmlns="http://www.w3.org/2000/svg">
<path d="M1.048 12.08C0.845333 12.08 0.685333 12.0213 0.568 11.904C0.450667 11.776 0.392 11.6107 0.392 11.408V1.36C0.392 1.168 0.450667 1.01333 0.568 0.896C0.696 0.778666 0.861333 0.719999 1.064 0.719999H6.888C7.08 0.719999 7.22933 0.767999 7.336 0.863999C7.44267 0.959999 7.496 1.09867 7.496 1.28C7.496 1.45067 7.44267 1.584 7.336 1.68C7.22933 1.776 7.08 1.824 6.888 1.824H1.688V5.712H6.568C6.76 5.712 6.90933 5.76 7.016 5.856C7.12267 5.952 7.176 6.09067 7.176 6.272C7.176 6.44267 7.12267 6.576 7.016 6.672C6.90933 6.768 6.76 6.816 6.568 6.816H1.688V11.408C1.688 11.6107 1.62933 11.776 1.512 11.904C1.40533 12.0213 1.25067 12.08 1.048 12.08ZM14.982 10.192C15.0993 10.192 15.2007 10.24 15.286 10.336C15.3713 10.432 15.414 10.5547 15.414 10.704C15.414 10.9707 15.2273 11.216 14.854 11.44C14.47 11.664 14.0647 11.8347 13.638 11.952C13.2113 12.0587 12.7953 12.112 12.39 12.112C11.1847 12.112 10.23 11.7547 9.526 11.04C8.83267 10.3253 8.486 9.33867 8.486 8.08C8.486 7.28 8.64067 6.576 8.95 5.968C9.25933 5.34933 9.69133 4.86933 10.246 4.528C10.8113 4.18667 11.4513 4.016 12.166 4.016C13.1793 4.016 13.9847 4.34667 14.582 5.008C15.1793 5.66933 15.478 6.56533 15.478 7.696C15.478 7.90933 15.4353 8.064 15.35 8.16C15.2647 8.256 15.126 8.304 14.934 8.304H9.782C9.878 10.1387 10.7473 11.056 12.39 11.056C12.806 11.056 13.1633 11.0027 13.462 10.896C13.7607 10.7787 14.0807 10.624 14.422 10.432C14.6993 10.272 14.886 10.192 14.982 10.192ZM12.182 5.024C11.4993 5.024 10.95 5.23733 10.534 5.664C10.1287 6.09067 9.88867 6.69333 9.814 7.472H14.342C14.3207 6.68267 14.1233 6.08 13.75 5.664C13.3767 5.23733 12.854 5.024 12.182 5.024ZM20.5715 4.016C22.5235 4.016 23.4995 5.04 23.4995 7.088V11.44C23.4995 11.632 23.4408 11.7867 23.3235 11.904C23.2168 12.0213 23.0675 12.08 22.8755 12.08C22.6835 12.08 22.5288 12.0213 22.4115 11.904C22.2942 11.7867 22.2355 11.632 22.2355 11.44V10.672C22.0328 11.1307 21.7235 11.488 21.3075 11.744C20.8915 11.9893 20.4115 12.112 19.8675 12.112C19.3662 12.112 18.9022 12.0107 18.4755 11.808C18.0595 11.6053 17.7288 11.3227 17.4835 10.96C17.2382 10.5973 17.1155 10.1973 17.1155 9.76C17.1155 9.17333 17.2648 8.72 17.5635 8.4C17.8622 8.06933 18.3528 7.83467 19.0355 7.696C19.7182 7.54667 20.6675 7.472 21.8835 7.472H22.2355V6.944C22.2355 6.304 22.1022 5.83467 21.8355 5.536C21.5795 5.23733 21.1582 5.088 20.5715 5.088C19.8462 5.088 19.1102 5.28533 18.3635 5.68C18.0755 5.86133 17.8728 5.952 17.7555 5.952C17.6275 5.952 17.5208 5.904 17.4355 5.808C17.3502 5.712 17.3075 5.58933 17.3075 5.44C17.3075 5.29067 17.3502 5.16267 17.4355 5.056C17.5315 4.93867 17.6808 4.82133 17.8835 4.704C18.2568 4.49067 18.6782 4.32533 19.1475 4.208C19.6275 4.08 20.1022 4.016 20.5715 4.016ZM20.0435 11.088C20.6835 11.088 21.2062 10.8747 21.6115 10.448C22.0275 10.0107 22.2355 9.45067 22.2355 8.768V8.304H21.9475C21.0088 8.304 20.2942 8.34667 19.8035 8.432C19.3128 8.50667 18.9608 8.64 18.7475 8.832C18.5448 9.01333 18.4435 9.28533 18.4435 9.648C18.4435 10.064 18.5928 10.4107 18.8915 10.688C19.2008 10.9547 19.5848 11.088 20.0435 11.088ZM29.4719 11.056C29.8452 11.088 30.0319 11.2587 30.0319 11.568C30.0319 11.7493 29.9625 11.888 29.8239 11.984C29.6959 12.0693 29.4985 12.1013 29.2319 12.08L28.7999 12.048C27.9465 11.984 27.3172 11.728 26.9119 11.28C26.5065 10.832 26.3039 10.1547 26.3039 9.248V5.232H25.2319C25.0505 5.232 24.9065 5.18933 24.7999 5.104C24.7039 5.008 24.6559 4.88533 24.6559 4.736C24.6559 4.576 24.7039 4.448 24.7999 4.352C24.9065 4.256 25.0505 4.208 25.2319 4.208H26.3039V2.4C26.3039 2.19733 26.3625 2.04267 26.4799 1.936C26.5972 1.81867 26.7572 1.76 26.9599 1.76C27.1519 1.76 27.3065 1.81867 27.4239 1.936C27.5412 2.04267 27.5999 2.19733 27.5999 2.4V4.208H29.3759C29.5465 4.208 29.6799 4.256 29.7759 4.352C29.8825 4.448 29.9359 4.576 29.9359 4.736C29.9359 4.88533 29.8825 5.008 29.7759 5.104C29.6799 5.18933 29.5465 5.232 29.3759 5.232H27.5999V9.312C27.5999 9.89867 27.7172 10.3253 27.9519 10.592C28.1972 10.848 28.5599 10.992 29.0399 11.024L29.4719 11.056ZM37.2294 4.048C37.432 4.048 37.5867 4.10667 37.6934 4.224C37.8107 4.34133 37.8694 4.496 37.8694 4.688V11.456C37.8694 11.6373 37.8107 11.7867 37.6934 11.904C37.5867 12.0213 37.432 12.08 37.2294 12.08C37.0374 12.08 36.8827 12.0267 36.7654 11.92C36.6587 11.8027 36.6054 11.6533 36.6054 11.472V10.672C36.36 11.1413 36.0134 11.4987 35.5654 11.744C35.128 11.9893 34.632 12.112 34.0774 12.112C33.1494 12.112 32.4507 11.856 31.9814 11.344C31.512 10.8213 31.2774 10.0533 31.2774 9.04V4.688C31.2774 4.496 31.336 4.34133 31.4534 4.224C31.5707 4.10667 31.7307 4.048 31.9334 4.048C32.136 4.048 32.2907 4.10667 32.3974 4.224C32.5147 4.34133 32.5734 4.496 32.5734 4.688V9.008C32.5734 9.70133 32.712 10.2133 32.9894 10.544C33.2667 10.864 33.704 11.024 34.3014 11.024C34.984 11.024 35.5334 10.8053 35.9494 10.368C36.3654 9.92 36.5734 9.33333 36.5734 8.608V4.688C36.5734 4.496 36.632 4.34133 36.7494 4.224C36.8667 4.10667 37.0267 4.048 37.2294 4.048ZM44.1341 4.048C44.5821 4.016 44.8061 4.19733 44.8061 4.592C44.8061 4.76267 44.7581 4.90133 44.6621 5.008C44.5661 5.104 44.4008 5.16267 44.1661 5.184L43.6861 5.232C42.9715 5.296 42.4381 5.552 42.0861 6C41.7448 6.43733 41.5741 6.95467 41.5741 7.552V11.44C41.5741 11.6533 41.5155 11.8133 41.3981 11.92C41.2808 12.0267 41.1261 12.08 40.9341 12.08C40.7421 12.08 40.5821 12.0267 40.4541 11.92C40.3368 11.8027 40.2781 11.6427 40.2781 11.44V4.688C40.2781 4.48533 40.3421 4.33067 40.4701 4.224C40.5981 4.10667 40.7528 4.048 40.9341 4.048C41.1048 4.048 41.2488 4.10667 41.3661 4.224C41.4835 4.33067 41.5421 4.48 41.5421 4.672V5.568C41.7661 5.09867 42.0808 4.74133 42.4861 4.496C42.9021 4.25067 43.3768 4.10667 43.9101 4.064L44.1341 4.048ZM51.7945 10.192C51.9118 10.192 52.0132 10.24 52.0985 10.336C52.1838 10.432 52.2265 10.5547 52.2265 10.704C52.2265 10.9707 52.0398 11.216 51.6665 11.44C51.2825 11.664 50.8772 11.8347 50.4505 11.952C50.0238 12.0587 49.6078 12.112 49.2025 12.112C47.9972 12.112 47.0425 11.7547 46.3385 11.04C45.6452 10.3253 45.2985 9.33867 45.2985 8.08C45.2985 7.28 45.4532 6.576 45.7625 5.968C46.0718 5.34933 46.5038 4.86933 47.0585 4.528C47.6238 4.18667 48.2638 4.016 48.9785 4.016C49.9918 4.016 50.7972 4.34667 51.3945 5.008C51.9918 5.66933 52.2905 6.56533 52.2905 7.696C52.2905 7.90933 52.2478 8.064 52.1625 8.16C52.0772 8.256 51.9385 8.304 51.7465 8.304H46.5945C46.6905 10.1387 47.5598 11.056 49.2025 11.056C49.6185 11.056 49.9758 11.0027 50.2745 10.896C50.5732 10.7787 50.8932 10.624 51.2345 10.432C51.5118 10.272 51.6985 10.192 51.7945 10.192ZM48.9945 5.024C48.3118 5.024 47.7625 5.23733 47.3465 5.664C46.9412 6.09067 46.7012 6.69333 46.6265 7.472H51.1545C51.1332 6.68267 50.9358 6.08 50.5625 5.664C50.1892 5.23733 49.6665 5.024 48.9945 5.024ZM56.824 12.112C56.3333 12.112 55.864 12.0533 55.416 11.936C54.9787 11.8187 54.5893 11.6533 54.248 11.44C54.056 11.312 53.9173 11.1947 53.832 11.088C53.7573 10.9707 53.72 10.832 53.72 10.672C53.72 10.5333 53.7573 10.4213 53.832 10.336C53.9173 10.24 54.024 10.192 54.152 10.192C54.28 10.192 54.4667 10.272 54.712 10.432C55.032 10.624 55.3467 10.7787 55.656 10.896C55.976 11.0027 56.3707 11.056 56.84 11.056C57.416 11.056 57.864 10.9547 58.184 10.752C58.504 10.5493 58.664 10.256 58.664 9.872C58.664 9.63733 58.6053 9.45067 58.488 9.312C58.3707 9.16267 58.168 9.03467 57.88 8.928C57.592 8.81067 57.1707 8.69333 56.616 8.576C55.6773 8.37333 55.0053 8.10133 54.6 7.76C54.1947 7.41867 53.992 6.95467 53.992 6.368C53.992 5.90933 54.12 5.504 54.376 5.152C54.632 4.8 54.984 4.52267 55.432 4.32C55.8907 4.11733 56.408 4.016 56.984 4.016C57.4 4.016 57.8 4.07467 58.184 4.192C58.5787 4.29867 58.9253 4.45333 59.224 4.656C59.5867 4.912 59.768 5.17867 59.768 5.456C59.768 5.59467 59.7253 5.712 59.64 5.808C59.5547 5.904 59.4533 5.952 59.336 5.952C59.208 5.952 59.016 5.86133 58.76 5.68C58.4613 5.488 58.1787 5.33867 57.912 5.232C57.6453 5.12533 57.3147 5.072 56.92 5.072C56.4187 5.072 56.0133 5.184 55.704 5.408C55.4053 5.632 55.256 5.93067 55.256 6.304C55.256 6.53867 55.3093 6.73067 55.416 6.88C55.5333 7.01867 55.72 7.14667 55.976 7.264C56.2427 7.37067 56.6213 7.47733 57.112 7.584C57.8373 7.744 58.3973 7.92 58.792 8.112C59.1973 8.304 59.4853 8.53867 59.656 8.816C59.8267 9.09333 59.912 9.44533 59.912 9.872C59.912 10.544 59.6293 11.088 59.064 11.504C58.4987 11.9093 57.752 12.112 56.824 12.112Z" fill="#222222"/>
</svg>
