<svg width="131" height="48" viewBox="0 0 131 48" fill="none" xmlns="http://www.w3.org/2000/svg">
<path d="M0.5 24C0.5 11.0213 11.0213 0.5 24 0.5H107C119.979 0.5 130.5 11.0213 130.5 24C130.5 36.9787 119.979 47.5 107 47.5H24C11.0213 47.5 0.5 36.9787 0.5 24Z" fill="white" stroke="black"/>
<path d="M44.6376 23.394C44.8176 23.394 44.9616 23.448 45.0696 23.556C45.1896 23.664 45.2496 23.814 45.2496 24.006V28.488C45.2496 28.776 45.2016 28.992 45.1056 29.136C45.0216 29.28 44.8596 29.394 44.6196 29.478C44.1396 29.682 43.5576 29.844 42.8736 29.964C42.1896 30.084 41.5056 30.144 40.8216 30.144C39.5616 30.144 38.4756 29.886 37.5636 29.37C36.6516 28.854 35.9496 28.11 35.4576 27.138C34.9776 26.166 34.7376 25.002 34.7376 23.646C34.7376 22.314 34.9776 21.162 35.4576 20.19C35.9376 19.218 36.6276 18.474 37.5276 17.958C38.4276 17.43 39.4836 17.166 40.6956 17.166C41.5356 17.166 42.3156 17.298 43.0356 17.562C43.7556 17.814 44.3616 18.18 44.8536 18.66C45.0576 18.864 45.1596 19.074 45.1596 19.29C45.1596 19.458 45.1116 19.608 45.0156 19.74C44.9196 19.86 44.7996 19.92 44.6556 19.92C44.5116 19.92 44.3436 19.848 44.1516 19.704C43.5276 19.224 42.9636 18.894 42.4596 18.714C41.9556 18.522 41.3736 18.426 40.7136 18.426C39.2856 18.426 38.1876 18.876 37.4196 19.776C36.6636 20.676 36.2856 21.966 36.2856 23.646C36.2856 25.362 36.6696 26.67 37.4376 27.57C38.2176 28.458 39.3576 28.902 40.8576 28.902C41.9736 28.902 42.9876 28.734 43.8996 28.398V24.546H41.2716C41.0676 24.546 40.9056 24.492 40.7856 24.384C40.6656 24.276 40.6056 24.138 40.6056 23.97C40.6056 23.79 40.6656 23.652 40.7856 23.556C40.9056 23.448 41.0676 23.394 41.2716 23.394H44.6376ZM54.801 27.966C54.933 27.966 55.047 28.02 55.143 28.128C55.239 28.236 55.287 28.374 55.287 28.542C55.287 28.842 55.077 29.118 54.657 29.37C54.225 29.622 53.769 29.814 53.289 29.946C52.809 30.066 52.341 30.126 51.885 30.126C50.529 30.126 49.455 29.724 48.663 28.92C47.883 28.116 47.493 27.006 47.493 25.59C47.493 24.69 47.667 23.898 48.015 23.214C48.363 22.518 48.849 21.978 49.473 21.594C50.109 21.21 50.829 21.018 51.633 21.018C52.773 21.018 53.679 21.39 54.351 22.134C55.023 22.878 55.359 23.886 55.359 25.158C55.359 25.398 55.311 25.572 55.215 25.68C55.119 25.788 54.963 25.842 54.747 25.842H48.951C49.059 27.906 50.037 28.938 51.885 28.938C52.353 28.938 52.755 28.878 53.091 28.758C53.427 28.626 53.787 28.452 54.171 28.236C54.483 28.056 54.693 27.966 54.801 27.966ZM51.651 22.152C50.883 22.152 50.265 22.392 49.797 22.872C49.341 23.352 49.071 24.03 48.987 24.906H54.081C54.057 24.018 53.835 23.34 53.415 22.872C52.995 22.392 52.407 22.152 51.651 22.152ZM61.5045 28.938C61.9245 28.974 62.1345 29.166 62.1345 29.514C62.1345 29.718 62.0565 29.874 61.9005 29.982C61.7565 30.078 61.5345 30.114 61.2345 30.09L60.7485 30.054C59.7885 29.982 59.0805 29.694 58.6245 29.19C58.1685 28.686 57.9405 27.924 57.9405 26.904V22.386H56.7345C56.5305 22.386 56.3685 22.338 56.2485 22.242C56.1405 22.134 56.0865 21.996 56.0865 21.828C56.0865 21.648 56.1405 21.504 56.2485 21.396C56.3685 21.288 56.5305 21.234 56.7345 21.234H57.9405V19.2C57.9405 18.972 58.0065 18.798 58.1385 18.678C58.2705 18.546 58.4505 18.48 58.6785 18.48C58.8945 18.48 59.0685 18.546 59.2005 18.678C59.3325 18.798 59.3985 18.972 59.3985 19.2V21.234H61.3965C61.5885 21.234 61.7385 21.288 61.8465 21.396C61.9665 21.504 62.0265 21.648 62.0265 21.828C62.0265 21.996 61.9665 22.134 61.8465 22.242C61.7385 22.338 61.5885 22.386 61.3965 22.386H59.3985V26.976C59.3985 27.636 59.5305 28.116 59.7945 28.416C60.0705 28.704 60.4785 28.866 61.0185 28.902L61.5045 28.938ZM71.7943 21.018C73.9903 21.018 75.0883 22.17 75.0883 24.474V29.37C75.0883 29.586 75.0223 29.76 74.8903 29.892C74.7703 30.024 74.6023 30.09 74.3863 30.09C74.1703 30.09 73.9963 30.024 73.8643 29.892C73.7323 29.76 73.6663 29.586 73.6663 29.37V28.506C73.4383 29.022 73.0903 29.424 72.6223 29.712C72.1543 29.988 71.6143 30.126 71.0023 30.126C70.4383 30.126 69.9163 30.012 69.4363 29.784C68.9683 29.556 68.5963 29.238 68.3203 28.83C68.0443 28.422 67.9063 27.972 67.9063 27.48C67.9063 26.82 68.0743 26.31 68.4103 25.95C68.7463 25.578 69.2983 25.314 70.0663 25.158C70.8343 24.99 71.9023 24.906 73.2703 24.906H73.6663V24.312C73.6663 23.592 73.5163 23.064 73.2163 22.728C72.9283 22.392 72.4543 22.224 71.7943 22.224C70.9783 22.224 70.1503 22.446 69.3103 22.89C68.9863 23.094 68.7583 23.196 68.6263 23.196C68.4823 23.196 68.3623 23.142 68.2663 23.034C68.1703 22.926 68.1223 22.788 68.1223 22.62C68.1223 22.452 68.1703 22.308 68.2663 22.188C68.3743 22.056 68.5423 21.924 68.7703 21.792C69.1903 21.552 69.6643 21.366 70.1923 21.234C70.7323 21.09 71.2663 21.018 71.7943 21.018ZM71.2003 28.974C71.9203 28.974 72.5083 28.734 72.9643 28.254C73.4323 27.762 73.6663 27.132 73.6663 26.364V25.842H73.3423C72.2863 25.842 71.4823 25.89 70.9303 25.986C70.3783 26.07 69.9823 26.22 69.7423 26.436C69.5143 26.64 69.4003 26.946 69.4003 27.354C69.4003 27.822 69.5683 28.212 69.9043 28.524C70.2523 28.824 70.6843 28.974 71.2003 28.974ZM82.1672 21.018C82.9352 21.018 83.6132 21.21 84.2012 21.594C84.7892 21.978 85.2452 22.518 85.5692 23.214C85.8932 23.898 86.0552 24.696 86.0552 25.608C86.0552 26.52 85.8932 27.318 85.5692 28.002C85.2452 28.674 84.7892 29.196 84.2012 29.568C83.6252 29.94 82.9472 30.126 82.1672 30.126C81.4832 30.126 80.8832 29.976 80.3672 29.676C79.8632 29.376 79.4792 28.95 79.2152 28.398V32.628C79.2152 32.844 79.1492 33.012 79.0172 33.132C78.8972 33.264 78.7232 33.33 78.4952 33.33C78.2672 33.33 78.0872 33.264 77.9552 33.132C77.8232 33 77.7572 32.832 77.7572 32.628V21.774C77.7572 21.558 77.8232 21.384 77.9552 21.252C78.0872 21.12 78.2672 21.054 78.4952 21.054C78.7232 21.054 78.8972 21.12 79.0172 21.252C79.1492 21.384 79.2152 21.558 79.2152 21.774V22.746C79.4792 22.194 79.8632 21.768 80.3672 21.468C80.8832 21.168 81.4832 21.018 82.1672 21.018ZM81.8792 28.92C82.7312 28.92 83.3912 28.632 83.8592 28.056C84.3272 27.48 84.5612 26.664 84.5612 25.608C84.5612 24.552 84.3272 23.73 83.8592 23.142C83.3912 22.542 82.7312 22.242 81.8792 22.242C81.0272 22.242 80.3672 22.53 79.8992 23.106C79.4432 23.682 79.2152 24.504 79.2152 25.572C79.2152 26.64 79.4432 27.468 79.8992 28.056C80.3672 28.632 81.0272 28.92 81.8792 28.92ZM92.6438 21.018C93.4118 21.018 94.0898 21.21 94.6778 21.594C95.2658 21.978 95.7218 22.518 96.0458 23.214C96.3698 23.898 96.5318 24.696 96.5318 25.608C96.5318 26.52 96.3698 27.318 96.0458 28.002C95.7218 28.674 95.2658 29.196 94.6778 29.568C94.1018 29.94 93.4238 30.126 92.6438 30.126C91.9598 30.126 91.3598 29.976 90.8438 29.676C90.3398 29.376 89.9558 28.95 89.6918 28.398V32.628C89.6918 32.844 89.6258 33.012 89.4938 33.132C89.3738 33.264 89.1998 33.33 88.9718 33.33C88.7438 33.33 88.5638 33.264 88.4318 33.132C88.2998 33 88.2338 32.832 88.2338 32.628V21.774C88.2338 21.558 88.2998 21.384 88.4318 21.252C88.5638 21.12 88.7438 21.054 88.9718 21.054C89.1998 21.054 89.3738 21.12 89.4938 21.252C89.6258 21.384 89.6918 21.558 89.6918 21.774V22.746C89.9558 22.194 90.3398 21.768 90.8438 21.468C91.3598 21.168 91.9598 21.018 92.6438 21.018ZM92.3558 28.92C93.2078 28.92 93.8678 28.632 94.3358 28.056C94.8038 27.48 95.0378 26.664 95.0378 25.608C95.0378 24.552 94.8038 23.73 94.3358 23.142C93.8678 22.542 93.2078 22.242 92.3558 22.242C91.5038 22.242 90.8438 22.53 90.3758 23.106C89.9198 23.682 89.6918 24.504 89.6918 25.572C89.6918 26.64 89.9198 27.468 90.3758 28.056C90.8438 28.632 91.5038 28.92 92.3558 28.92Z" fill="#222222"/>
</svg>
