<svg width="48" height="15" viewBox="0 0 48 15" fill="none" xmlns="http://www.w3.org/2000/svg">
<path d="M1.048 12.08C0.845333 12.08 0.685333 12.0213 0.568 11.904C0.450667 11.776 0.392 11.6107 0.392 11.408V1.36C0.392 1.168 0.450667 1.01333 0.568 0.896C0.696 0.778666 0.861333 0.719999 1.064 0.719999H4.856C6.04 0.719999 6.95733 1.008 7.608 1.584C8.26933 2.16 8.6 2.976 8.6 4.032C8.6 5.088 8.26933 5.90933 7.608 6.496C6.94667 7.08267 6.02933 7.376 4.856 7.376H1.704V11.408C1.704 11.6107 1.64533 11.776 1.528 11.904C1.41067 12.0213 1.25067 12.08 1.048 12.08ZM4.728 6.288C6.44533 6.288 7.304 5.536 7.304 4.032C7.304 2.54933 6.44533 1.808 4.728 1.808H1.704V6.288H4.728ZM14.2123 4.048C14.6603 4.016 14.8843 4.19733 14.8843 4.592C14.8843 4.76267 14.8363 4.90133 14.7403 5.008C14.6443 5.104 14.4789 5.16267 14.2443 5.184L13.7643 5.232C13.0496 5.296 12.5163 5.552 12.1643 6C11.8229 6.43733 11.6523 6.95467 11.6523 7.552V11.44C11.6523 11.6533 11.5936 11.8133 11.4763 11.92C11.3589 12.0267 11.2043 12.08 11.0123 12.08C10.8203 12.08 10.6603 12.0267 10.5323 11.92C10.4149 11.8027 10.3563 11.6427 10.3563 11.44V4.688C10.3563 4.48533 10.4203 4.33067 10.5483 4.224C10.6763 4.10667 10.8309 4.048 11.0123 4.048C11.1829 4.048 11.3269 4.10667 11.4443 4.224C11.5616 4.33067 11.6203 4.48 11.6203 4.672V5.568C11.8443 5.09867 12.1589 4.74133 12.5643 4.496C12.9803 4.25067 13.4549 4.10667 13.9883 4.064L14.2123 4.048ZM16.6529 12.08C16.4609 12.08 16.3009 12.0267 16.1729 11.92C16.0555 11.8027 15.9969 11.6427 15.9969 11.44V4.688C15.9969 4.48533 16.0555 4.33067 16.1729 4.224C16.3009 4.10667 16.4609 4.048 16.6529 4.048C16.8449 4.048 16.9995 4.10667 17.1169 4.224C17.2342 4.33067 17.2929 4.48533 17.2929 4.688V11.44C17.2929 11.6533 17.2342 11.8133 17.1169 11.92C16.9995 12.0267 16.8449 12.08 16.6529 12.08ZM16.6529 2.368C16.3969 2.368 16.1889 2.29333 16.0289 2.144C15.8689 1.99467 15.7889 1.79733 15.7889 1.552C15.7889 1.31733 15.8689 1.12533 16.0289 0.976C16.1889 0.826667 16.3969 0.752 16.6529 0.752C16.9089 0.752 17.1169 0.826667 17.2769 0.976C17.4369 1.12533 17.5169 1.31733 17.5169 1.552C17.5169 1.79733 17.4369 1.99467 17.2769 2.144C17.1169 2.29333 16.9089 2.368 16.6529 2.368ZM22.9316 12.112C22.2063 12.112 21.561 11.9467 20.9956 11.616C20.441 11.2853 20.009 10.816 19.6996 10.208C19.401 9.6 19.2516 8.896 19.2516 8.096C19.2516 7.296 19.4063 6.58667 19.7156 5.968C20.0356 5.34933 20.4783 4.86933 21.0436 4.528C21.609 4.18667 22.2596 4.016 22.9956 4.016C23.401 4.016 23.801 4.07467 24.1956 4.192C24.601 4.29867 24.953 4.45867 25.2516 4.672C25.4436 4.8 25.577 4.928 25.6516 5.056C25.737 5.17333 25.7796 5.30667 25.7796 5.456C25.7796 5.60533 25.737 5.728 25.6516 5.824C25.577 5.92 25.4756 5.968 25.3476 5.968C25.273 5.968 25.193 5.94667 25.1076 5.904C25.0223 5.86133 24.9476 5.81867 24.8836 5.776C24.8303 5.73333 24.793 5.70667 24.7716 5.696C24.4943 5.51467 24.2276 5.37067 23.9716 5.264C23.7263 5.15733 23.4223 5.104 23.0596 5.104C22.281 5.104 21.673 5.37067 21.2356 5.904C20.809 6.42667 20.5956 7.15733 20.5956 8.096C20.5956 9.03467 20.809 9.76 21.2356 10.272C21.673 10.784 22.281 11.04 23.0596 11.04C23.4223 11.04 23.7316 10.9867 23.9876 10.88C24.2543 10.7733 24.521 10.6293 24.7876 10.448C24.905 10.3733 25.017 10.3093 25.1236 10.256C25.2303 10.2027 25.321 10.176 25.3956 10.176C25.513 10.176 25.609 10.224 25.6836 10.32C25.769 10.416 25.8116 10.5387 25.8116 10.688C25.8116 10.8267 25.7743 10.9547 25.6996 11.072C25.625 11.1787 25.4863 11.3013 25.2836 11.44C24.985 11.6427 24.6223 11.808 24.1956 11.936C23.7796 12.0533 23.3583 12.112 22.9316 12.112ZM28.0279 12.08C27.8359 12.08 27.6759 12.0267 27.5479 11.92C27.4305 11.8027 27.3719 11.6427 27.3719 11.44V4.688C27.3719 4.48533 27.4305 4.33067 27.5479 4.224C27.6759 4.10667 27.8359 4.048 28.0279 4.048C28.2199 4.048 28.3745 4.10667 28.4919 4.224C28.6092 4.33067 28.6679 4.48533 28.6679 4.688V11.44C28.6679 11.6533 28.6092 11.8133 28.4919 11.92C28.3745 12.0267 28.2199 12.08 28.0279 12.08ZM28.0279 2.368C27.7719 2.368 27.5639 2.29333 27.4039 2.144C27.2439 1.99467 27.1639 1.79733 27.1639 1.552C27.1639 1.31733 27.2439 1.12533 27.4039 0.976C27.5639 0.826667 27.7719 0.752 28.0279 0.752C28.2839 0.752 28.4919 0.826667 28.6519 0.976C28.8119 1.12533 28.8919 1.31733 28.8919 1.552C28.8919 1.79733 28.8119 1.99467 28.6519 2.144C28.4919 2.29333 28.2839 2.368 28.0279 2.368ZM35.0106 4.016C36.8773 4.016 37.8106 5.04533 37.8106 7.104V11.44C37.8106 11.6427 37.752 11.8027 37.6346 11.92C37.528 12.0267 37.3733 12.08 37.1706 12.08C36.968 12.08 36.808 12.0267 36.6906 11.92C36.5733 11.8027 36.5146 11.6427 36.5146 11.44V7.184C36.5146 6.45867 36.3706 5.93067 36.0826 5.6C35.8053 5.26933 35.3573 5.104 34.7386 5.104C34.024 5.104 33.4533 5.32267 33.0266 5.76C32.6 6.19733 32.3866 6.78933 32.3866 7.536V11.44C32.3866 11.6427 32.328 11.8027 32.2106 11.92C32.104 12.0267 31.9493 12.08 31.7466 12.08C31.544 12.08 31.384 12.0267 31.2666 11.92C31.1493 11.8027 31.0906 11.6427 31.0906 11.44V4.688C31.0906 4.496 31.1493 4.34133 31.2666 4.224C31.384 4.10667 31.544 4.048 31.7466 4.048C31.9386 4.048 32.088 4.10667 32.1946 4.224C32.312 4.34133 32.3706 4.49067 32.3706 4.672V5.488C32.6266 5.008 32.984 4.64533 33.4426 4.4C33.9013 4.144 34.424 4.016 35.0106 4.016ZM46.5044 4.048C46.707 4.048 46.867 4.10667 46.9844 4.224C47.1017 4.34133 47.1604 4.496 47.1604 4.688V11.472C47.1604 12.6347 46.8617 13.5093 46.2644 14.096C45.667 14.6933 44.7817 14.992 43.6084 14.992C42.467 14.992 41.5177 14.768 40.7604 14.32C40.3764 14.1067 40.1844 13.8613 40.1844 13.584C40.1844 13.4347 40.2217 13.312 40.2964 13.216C40.3817 13.12 40.4884 13.072 40.6164 13.072C40.723 13.072 40.915 13.1467 41.1924 13.296C41.5657 13.488 41.9337 13.6427 42.2964 13.76C42.659 13.8773 43.091 13.936 43.5924 13.936C44.3497 13.936 44.9204 13.7333 45.3044 13.328C45.6884 12.9333 45.8804 12.352 45.8804 11.584V10.208C45.6564 10.7093 45.3097 11.0933 44.8404 11.36C44.3817 11.6267 43.8377 11.76 43.2084 11.76C42.5257 11.76 41.9177 11.6 41.3844 11.28C40.8617 10.96 40.451 10.5067 40.1524 9.92C39.8644 9.33333 39.7204 8.656 39.7204 7.888C39.7204 7.12 39.8644 6.44267 40.1524 5.856C40.451 5.26933 40.8617 4.816 41.3844 4.496C41.9177 4.176 42.5257 4.016 43.2084 4.016C43.827 4.016 44.3657 4.14933 44.8244 4.416C45.283 4.68267 45.6297 5.06133 45.8644 5.552V4.688C45.8644 4.496 45.9177 4.34133 46.0244 4.224C46.1417 4.10667 46.3017 4.048 46.5044 4.048ZM43.4644 10.688C44.211 10.688 44.7977 10.4427 45.2244 9.952C45.651 9.45067 45.8644 8.76267 45.8644 7.888C45.8644 7.024 45.651 6.34667 45.2244 5.856C44.8084 5.35467 44.2217 5.104 43.4644 5.104C42.707 5.104 42.1097 5.35467 41.6724 5.856C41.2457 6.34667 41.0324 7.024 41.0324 7.888C41.0324 8.76267 41.2457 9.45067 41.6724 9.952C42.1097 10.4427 42.707 10.688 43.4644 10.688Z" fill="#222222"/>
</svg>
