<svg width="237" height="48" viewBox="0 0 237 48" fill="none" xmlns="http://www.w3.org/2000/svg">
<path d="M0.5 24C0.5 11.0213 11.0213 0.5 24 0.5H213C225.979 0.5 236.5 11.0213 236.5 24C236.5 36.9787 225.979 47.5 213 47.5H24C11.0213 47.5 0.5 36.9787 0.5 24Z" fill="white" stroke="black"/>
<path d="M37.616 30.144C36.716 30.144 35.852 30.012 35.024 29.748C34.208 29.472 33.554 29.106 33.062 28.65C32.882 28.482 32.792 28.272 32.792 28.02C32.792 27.852 32.84 27.708 32.936 27.588C33.032 27.456 33.146 27.39 33.278 27.39C33.434 27.39 33.602 27.456 33.782 27.588C34.898 28.452 36.17 28.884 37.598 28.884C38.63 28.884 39.422 28.686 39.974 28.29C40.526 27.894 40.802 27.33 40.802 26.598C40.802 26.178 40.67 25.842 40.406 25.59C40.142 25.326 39.794 25.116 39.362 24.96C38.93 24.804 38.348 24.642 37.616 24.474C36.632 24.246 35.822 24.006 35.186 23.754C34.562 23.502 34.052 23.142 33.656 22.674C33.272 22.206 33.08 21.594 33.08 20.838C33.08 20.118 33.272 19.482 33.656 18.93C34.052 18.366 34.598 17.934 35.294 17.634C36.002 17.322 36.806 17.166 37.706 17.166C38.546 17.166 39.326 17.298 40.046 17.562C40.778 17.814 41.39 18.18 41.882 18.66C42.074 18.852 42.17 19.062 42.17 19.29C42.17 19.458 42.122 19.608 42.026 19.74C41.93 19.86 41.816 19.92 41.684 19.92C41.552 19.92 41.378 19.854 41.162 19.722C40.574 19.242 40.028 18.906 39.524 18.714C39.02 18.522 38.414 18.426 37.706 18.426C36.71 18.426 35.936 18.636 35.384 19.056C34.832 19.464 34.556 20.04 34.556 20.784C34.556 21.42 34.796 21.9 35.276 22.224C35.768 22.536 36.518 22.812 37.526 23.052C38.618 23.316 39.476 23.562 40.1 23.79C40.724 24.006 41.24 24.336 41.648 24.78C42.068 25.224 42.278 25.818 42.278 26.562C42.278 27.27 42.08 27.894 41.684 28.434C41.3 28.974 40.754 29.394 40.046 29.694C39.338 29.994 38.528 30.144 37.616 30.144ZM48.8874 21.018C49.9194 21.018 50.6994 21.312 51.2274 21.9C51.7554 22.476 52.0194 23.34 52.0194 24.492V29.37C52.0194 29.598 51.9534 29.778 51.8214 29.91C51.6894 30.03 51.5154 30.09 51.2994 30.09C51.0714 30.09 50.8914 30.03 50.7594 29.91C50.6274 29.778 50.5614 29.598 50.5614 29.37V24.528C50.5614 23.748 50.3994 23.172 50.0754 22.8C49.7634 22.428 49.2594 22.242 48.5634 22.242C47.7594 22.242 47.1174 22.488 46.6374 22.98C46.1574 23.472 45.9174 24.138 45.9174 24.978V29.37C45.9174 29.598 45.8514 29.778 45.7194 29.91C45.5994 30.03 45.4254 30.09 45.1974 30.09C44.9694 30.09 44.7894 30.03 44.6574 29.91C44.5254 29.778 44.4594 29.598 44.4594 29.37V17.922C44.4594 17.718 44.5254 17.55 44.6574 17.418C44.8014 17.286 44.9814 17.22 45.1974 17.22C45.4254 17.22 45.5994 17.286 45.7194 17.418C45.8514 17.538 45.9174 17.706 45.9174 17.922V22.638C46.2054 22.11 46.6074 21.708 47.1234 21.432C47.6394 21.156 48.2274 21.018 48.8874 21.018ZM58.3258 30.126C57.4978 30.126 56.7658 29.94 56.1298 29.568C55.5058 29.196 55.0198 28.668 54.6718 27.984C54.3358 27.288 54.1678 26.484 54.1678 25.572C54.1678 24.66 54.3358 23.862 54.6718 23.178C55.0198 22.482 55.5058 21.948 56.1298 21.576C56.7658 21.204 57.4978 21.018 58.3258 21.018C59.1538 21.018 59.8858 21.204 60.5218 21.576C61.1578 21.948 61.6438 22.482 61.9798 23.178C62.3278 23.862 62.5018 24.66 62.5018 25.572C62.5018 26.484 62.3278 27.288 61.9798 27.984C61.6438 28.668 61.1578 29.196 60.5218 29.568C59.8858 29.94 59.1538 30.126 58.3258 30.126ZM58.3258 28.92C59.1898 28.92 59.8498 28.638 60.3058 28.074C60.7738 27.498 61.0078 26.664 61.0078 25.572C61.0078 24.504 60.7738 23.682 60.3058 23.106C59.8378 22.518 59.1778 22.224 58.3258 22.224C57.4738 22.224 56.8138 22.518 56.3458 23.106C55.8778 23.682 55.6438 24.504 55.6438 25.572C55.6438 26.652 55.8718 27.48 56.3278 28.056C56.7958 28.632 57.4618 28.92 58.3258 28.92ZM76.5568 21.522C76.6768 21.234 76.8748 21.09 77.1508 21.09C77.3308 21.09 77.4928 21.15 77.6368 21.27C77.7808 21.39 77.8528 21.54 77.8528 21.72C77.8528 21.804 77.8348 21.894 77.7988 21.99L74.8108 29.55C74.7388 29.706 74.6308 29.832 74.4868 29.928C74.3548 30.012 74.2048 30.054 74.0368 30.054C73.8808 30.054 73.7308 30.012 73.5868 29.928C73.4548 29.832 73.3528 29.706 73.2808 29.55L70.7968 23.232L68.3308 29.55C68.2708 29.706 68.1688 29.832 68.0248 29.928C67.8808 30.012 67.7248 30.054 67.5568 30.054C67.4008 30.054 67.2508 30.012 67.1068 29.928C66.9628 29.832 66.8548 29.706 66.7828 29.55L63.7948 22.008C63.7588 21.912 63.7408 21.828 63.7408 21.756C63.7408 21.564 63.8188 21.402 63.9748 21.27C64.1428 21.138 64.3228 21.072 64.5148 21.072C64.8028 21.072 65.0068 21.216 65.1268 21.504L67.5928 28.146L70.1308 21.558C70.2028 21.402 70.2988 21.282 70.4188 21.198C70.5508 21.114 70.6888 21.072 70.8328 21.072C70.9888 21.072 71.1268 21.114 71.2468 21.198C71.3788 21.282 71.4748 21.402 71.5348 21.558L74.0728 28.128L76.5568 21.522ZM94.1177 21.018C96.0617 21.018 97.0337 22.176 97.0337 24.492V29.37C97.0337 29.598 96.9677 29.778 96.8357 29.91C96.7037 30.03 96.5297 30.09 96.3137 30.09C96.0977 30.09 95.9177 30.03 95.7737 29.91C95.6417 29.778 95.5757 29.598 95.5757 29.37V24.528C95.5757 23.724 95.4317 23.142 95.1437 22.782C94.8557 22.422 94.4057 22.242 93.7937 22.242C93.0617 22.242 92.4857 22.488 92.0657 22.98C91.6457 23.472 91.4357 24.138 91.4357 24.978V29.37C91.4357 29.598 91.3637 29.778 91.2197 29.91C91.0877 30.03 90.9137 30.09 90.6977 30.09C90.4817 30.09 90.3077 30.03 90.1757 29.91C90.0437 29.778 89.9777 29.598 89.9777 29.37V24.528C89.9777 23.724 89.8337 23.142 89.5457 22.782C89.2577 22.422 88.8017 22.242 88.1777 22.242C87.4577 22.242 86.8817 22.488 86.4497 22.98C86.0297 23.472 85.8197 24.138 85.8197 24.978V29.37C85.8197 29.598 85.7537 29.778 85.6217 29.91C85.4897 30.03 85.3157 30.09 85.0997 30.09C84.8837 30.09 84.7037 30.03 84.5597 29.91C84.4277 29.778 84.3617 29.598 84.3617 29.37V21.774C84.3617 21.558 84.4277 21.384 84.5597 21.252C84.7037 21.12 84.8837 21.054 85.0997 21.054C85.3037 21.054 85.4717 21.12 85.6037 21.252C85.7357 21.372 85.8017 21.54 85.8017 21.756V22.62C86.0657 22.104 86.4317 21.708 86.8997 21.432C87.3677 21.156 87.9077 21.018 88.5197 21.018C89.8877 21.018 90.7817 21.594 91.2017 22.746C91.4537 22.218 91.8377 21.798 92.3537 21.486C92.8697 21.174 93.4577 21.018 94.1177 21.018ZM103.326 30.126C102.498 30.126 101.766 29.94 101.13 29.568C100.506 29.196 100.02 28.668 99.6718 27.984C99.3358 27.288 99.1678 26.484 99.1678 25.572C99.1678 24.66 99.3358 23.862 99.6718 23.178C100.02 22.482 100.506 21.948 101.13 21.576C101.766 21.204 102.498 21.018 103.326 21.018C104.154 21.018 104.886 21.204 105.522 21.576C106.158 21.948 106.644 22.482 106.98 23.178C107.328 23.862 107.502 24.66 107.502 25.572C107.502 26.484 107.328 27.288 106.98 27.984C106.644 28.668 106.158 29.196 105.522 29.568C104.886 29.94 104.154 30.126 103.326 30.126ZM103.326 28.92C104.19 28.92 104.85 28.638 105.306 28.074C105.774 27.498 106.008 26.664 106.008 25.572C106.008 24.504 105.774 23.682 105.306 23.106C104.838 22.518 104.178 22.224 103.326 22.224C102.474 22.224 101.814 22.518 101.346 23.106C100.878 23.682 100.644 24.504 100.644 25.572C100.644 26.652 100.872 27.48 101.328 28.056C101.796 28.632 102.462 28.92 103.326 28.92ZM114.012 21.054C114.516 21.018 114.768 21.222 114.768 21.666C114.768 21.858 114.714 22.014 114.606 22.134C114.498 22.242 114.312 22.308 114.048 22.332L113.508 22.386C112.704 22.458 112.104 22.746 111.708 23.25C111.324 23.742 111.132 24.324 111.132 24.996V29.37C111.132 29.61 111.066 29.79 110.934 29.91C110.802 30.03 110.628 30.09 110.412 30.09C110.196 30.09 110.016 30.03 109.872 29.91C109.74 29.778 109.674 29.598 109.674 29.37V21.774C109.674 21.546 109.746 21.372 109.89 21.252C110.034 21.12 110.208 21.054 110.412 21.054C110.604 21.054 110.766 21.12 110.898 21.252C111.03 21.372 111.096 21.54 111.096 21.756V22.764C111.348 22.236 111.702 21.834 112.158 21.558C112.626 21.282 113.16 21.12 113.76 21.072L114.012 21.054ZM122.63 27.966C122.762 27.966 122.876 28.02 122.972 28.128C123.068 28.236 123.116 28.374 123.116 28.542C123.116 28.842 122.906 29.118 122.486 29.37C122.054 29.622 121.598 29.814 121.118 29.946C120.638 30.066 120.17 30.126 119.714 30.126C118.358 30.126 117.284 29.724 116.492 28.92C115.712 28.116 115.322 27.006 115.322 25.59C115.322 24.69 115.496 23.898 115.844 23.214C116.192 22.518 116.678 21.978 117.302 21.594C117.938 21.21 118.658 21.018 119.462 21.018C120.602 21.018 121.508 21.39 122.18 22.134C122.852 22.878 123.188 23.886 123.188 25.158C123.188 25.398 123.14 25.572 123.044 25.68C122.948 25.788 122.792 25.842 122.576 25.842H116.78C116.888 27.906 117.866 28.938 119.714 28.938C120.182 28.938 120.584 28.878 120.92 28.758C121.256 28.626 121.616 28.452 122 28.236C122.312 28.056 122.522 27.966 122.63 27.966ZM119.48 22.152C118.712 22.152 118.094 22.392 117.626 22.872C117.17 23.352 116.9 24.03 116.816 24.906H121.91C121.886 24.018 121.664 23.34 121.244 22.872C120.824 22.392 120.236 22.152 119.48 22.152ZM134.387 21.018C135.155 21.018 135.833 21.21 136.421 21.594C137.009 21.978 137.465 22.518 137.789 23.214C138.113 23.898 138.275 24.696 138.275 25.608C138.275 26.52 138.113 27.318 137.789 28.002C137.465 28.674 137.009 29.196 136.421 29.568C135.845 29.94 135.167 30.126 134.387 30.126C133.703 30.126 133.103 29.976 132.587 29.676C132.083 29.376 131.699 28.95 131.435 28.398V32.628C131.435 32.844 131.369 33.012 131.237 33.132C131.117 33.264 130.943 33.33 130.715 33.33C130.487 33.33 130.307 33.264 130.175 33.132C130.043 33 129.977 32.832 129.977 32.628V21.774C129.977 21.558 130.043 21.384 130.175 21.252C130.307 21.12 130.487 21.054 130.715 21.054C130.943 21.054 131.117 21.12 131.237 21.252C131.369 21.384 131.435 21.558 131.435 21.774V22.746C131.699 22.194 132.083 21.768 132.587 21.468C133.103 21.168 133.703 21.018 134.387 21.018ZM134.099 28.92C134.951 28.92 135.611 28.632 136.079 28.056C136.547 27.48 136.781 26.664 136.781 25.608C136.781 24.552 136.547 23.73 136.079 23.142C135.611 22.542 134.951 22.242 134.099 22.242C133.247 22.242 132.587 22.53 132.119 23.106C131.663 23.682 131.435 24.504 131.435 25.572C131.435 26.64 131.663 27.468 132.119 28.056C132.587 28.632 133.247 28.92 134.099 28.92ZM144.036 21.018C146.232 21.018 147.33 22.17 147.33 24.474V29.37C147.33 29.586 147.264 29.76 147.132 29.892C147.012 30.024 146.844 30.09 146.628 30.09C146.412 30.09 146.238 30.024 146.106 29.892C145.974 29.76 145.908 29.586 145.908 29.37V28.506C145.68 29.022 145.332 29.424 144.864 29.712C144.396 29.988 143.856 30.126 143.244 30.126C142.68 30.126 142.158 30.012 141.678 29.784C141.21 29.556 140.838 29.238 140.562 28.83C140.286 28.422 140.148 27.972 140.148 27.48C140.148 26.82 140.316 26.31 140.652 25.95C140.988 25.578 141.54 25.314 142.308 25.158C143.076 24.99 144.144 24.906 145.512 24.906H145.908V24.312C145.908 23.592 145.758 23.064 145.458 22.728C145.17 22.392 144.696 22.224 144.036 22.224C143.22 22.224 142.392 22.446 141.552 22.89C141.228 23.094 141 23.196 140.868 23.196C140.724 23.196 140.604 23.142 140.508 23.034C140.412 22.926 140.364 22.788 140.364 22.62C140.364 22.452 140.412 22.308 140.508 22.188C140.616 22.056 140.784 21.924 141.012 21.792C141.432 21.552 141.906 21.366 142.434 21.234C142.974 21.09 143.508 21.018 144.036 21.018ZM143.442 28.974C144.162 28.974 144.75 28.734 145.206 28.254C145.674 27.762 145.908 27.132 145.908 26.364V25.842H145.584C144.528 25.842 143.724 25.89 143.172 25.986C142.62 26.07 142.224 26.22 141.984 26.436C141.756 26.64 141.642 26.946 141.642 27.354C141.642 27.822 141.81 28.212 142.146 28.524C142.494 28.824 142.926 28.974 143.442 28.974ZM154.336 21.054C154.84 21.018 155.092 21.222 155.092 21.666C155.092 21.858 155.038 22.014 154.93 22.134C154.822 22.242 154.636 22.308 154.372 22.332L153.832 22.386C153.028 22.458 152.428 22.746 152.032 23.25C151.648 23.742 151.456 24.324 151.456 24.996V29.37C151.456 29.61 151.39 29.79 151.258 29.91C151.126 30.03 150.952 30.09 150.736 30.09C150.52 30.09 150.34 30.03 150.196 29.91C150.064 29.778 149.998 29.598 149.998 29.37V21.774C149.998 21.546 150.07 21.372 150.214 21.252C150.358 21.12 150.532 21.054 150.736 21.054C150.928 21.054 151.09 21.12 151.222 21.252C151.354 21.372 151.42 21.54 151.42 21.756V22.764C151.672 22.236 152.026 21.834 152.482 21.558C152.95 21.282 153.484 21.12 154.084 21.072L154.336 21.054ZM161.097 28.938C161.517 28.974 161.727 29.166 161.727 29.514C161.727 29.718 161.649 29.874 161.493 29.982C161.349 30.078 161.127 30.114 160.827 30.09L160.341 30.054C159.381 29.982 158.673 29.694 158.217 29.19C157.761 28.686 157.533 27.924 157.533 26.904V22.386H156.327C156.123 22.386 155.961 22.338 155.841 22.242C155.733 22.134 155.679 21.996 155.679 21.828C155.679 21.648 155.733 21.504 155.841 21.396C155.961 21.288 156.123 21.234 156.327 21.234H157.533V19.2C157.533 18.972 157.599 18.798 157.731 18.678C157.863 18.546 158.043 18.48 158.271 18.48C158.487 18.48 158.661 18.546 158.793 18.678C158.925 18.798 158.991 18.972 158.991 19.2V21.234H160.989C161.181 21.234 161.331 21.288 161.439 21.396C161.559 21.504 161.619 21.648 161.619 21.828C161.619 21.996 161.559 22.134 161.439 22.242C161.331 22.338 161.181 22.386 160.989 22.386H158.991V26.976C158.991 27.636 159.123 28.116 159.387 28.416C159.663 28.704 160.071 28.866 160.611 28.902L161.097 28.938ZM167.574 21.018C169.674 21.018 170.724 22.176 170.724 24.492V29.37C170.724 29.598 170.658 29.778 170.526 29.91C170.406 30.03 170.232 30.09 170.004 30.09C169.776 30.09 169.596 30.03 169.464 29.91C169.332 29.778 169.266 29.598 169.266 29.37V24.582C169.266 23.766 169.104 23.172 168.78 22.8C168.468 22.428 167.964 22.242 167.268 22.242C166.464 22.242 165.822 22.488 165.342 22.98C164.862 23.472 164.622 24.138 164.622 24.978V29.37C164.622 29.598 164.556 29.778 164.424 29.91C164.304 30.03 164.13 30.09 163.902 30.09C163.674 30.09 163.494 30.03 163.362 29.91C163.23 29.778 163.164 29.598 163.164 29.37V21.774C163.164 21.558 163.23 21.384 163.362 21.252C163.494 21.12 163.674 21.054 163.902 21.054C164.118 21.054 164.286 21.12 164.406 21.252C164.538 21.384 164.604 21.552 164.604 21.756V22.674C164.892 22.134 165.294 21.726 165.81 21.45C166.326 21.162 166.914 21.018 167.574 21.018ZM180.181 27.966C180.313 27.966 180.427 28.02 180.523 28.128C180.619 28.236 180.667 28.374 180.667 28.542C180.667 28.842 180.457 29.118 180.037 29.37C179.605 29.622 179.149 29.814 178.669 29.946C178.189 30.066 177.721 30.126 177.265 30.126C175.909 30.126 174.835 29.724 174.043 28.92C173.263 28.116 172.873 27.006 172.873 25.59C172.873 24.69 173.047 23.898 173.395 23.214C173.743 22.518 174.229 21.978 174.853 21.594C175.489 21.21 176.209 21.018 177.013 21.018C178.153 21.018 179.059 21.39 179.731 22.134C180.403 22.878 180.739 23.886 180.739 25.158C180.739 25.398 180.691 25.572 180.595 25.68C180.499 25.788 180.343 25.842 180.127 25.842H174.331C174.439 27.906 175.417 28.938 177.265 28.938C177.733 28.938 178.135 28.878 178.471 28.758C178.807 28.626 179.167 28.452 179.551 28.236C179.863 28.056 180.073 27.966 180.181 27.966ZM177.031 22.152C176.263 22.152 175.645 22.392 175.177 22.872C174.721 23.352 174.451 24.03 174.367 24.906H179.461C179.437 24.018 179.215 23.34 178.795 22.872C178.375 22.392 177.787 22.152 177.031 22.152ZM187.225 21.054C187.729 21.018 187.981 21.222 187.981 21.666C187.981 21.858 187.927 22.014 187.819 22.134C187.711 22.242 187.525 22.308 187.261 22.332L186.721 22.386C185.917 22.458 185.317 22.746 184.921 23.25C184.537 23.742 184.345 24.324 184.345 24.996V29.37C184.345 29.61 184.279 29.79 184.147 29.91C184.015 30.03 183.841 30.09 183.625 30.09C183.409 30.09 183.229 30.03 183.085 29.91C182.953 29.778 182.887 29.598 182.887 29.37V21.774C182.887 21.546 182.959 21.372 183.103 21.252C183.247 21.12 183.421 21.054 183.625 21.054C183.817 21.054 183.979 21.12 184.111 21.252C184.243 21.372 184.309 21.54 184.309 21.756V22.764C184.561 22.236 184.915 21.834 185.371 21.558C185.839 21.282 186.373 21.12 186.973 21.072L187.225 21.054ZM192.097 30.126C191.545 30.126 191.017 30.06 190.513 29.928C190.021 29.796 189.583 29.61 189.199 29.37C188.983 29.226 188.827 29.094 188.731 28.974C188.647 28.842 188.605 28.686 188.605 28.506C188.605 28.35 188.647 28.224 188.731 28.128C188.827 28.02 188.947 27.966 189.091 27.966C189.235 27.966 189.445 28.056 189.721 28.236C190.081 28.452 190.435 28.626 190.783 28.758C191.143 28.878 191.587 28.938 192.115 28.938C192.763 28.938 193.267 28.824 193.627 28.596C193.987 28.368 194.167 28.038 194.167 27.606C194.167 27.342 194.101 27.132 193.969 26.976C193.837 26.808 193.609 26.664 193.285 26.544C192.961 26.412 192.487 26.28 191.863 26.148C190.807 25.92 190.051 25.614 189.595 25.23C189.139 24.846 188.911 24.324 188.911 23.664C188.911 23.148 189.055 22.692 189.343 22.296C189.631 21.9 190.027 21.588 190.531 21.36C191.047 21.132 191.629 21.018 192.277 21.018C192.745 21.018 193.195 21.084 193.627 21.216C194.071 21.336 194.461 21.51 194.797 21.738C195.205 22.026 195.409 22.326 195.409 22.638C195.409 22.794 195.361 22.926 195.265 23.034C195.169 23.142 195.055 23.196 194.923 23.196C194.779 23.196 194.563 23.094 194.275 22.89C193.939 22.674 193.621 22.506 193.321 22.386C193.021 22.266 192.649 22.206 192.205 22.206C191.641 22.206 191.185 22.332 190.837 22.584C190.501 22.836 190.333 23.172 190.333 23.592C190.333 23.856 190.393 24.072 190.513 24.24C190.645 24.396 190.855 24.54 191.143 24.672C191.443 24.792 191.869 24.912 192.421 25.032C193.237 25.212 193.867 25.41 194.311 25.626C194.767 25.842 195.091 26.106 195.283 26.418C195.475 26.73 195.571 27.126 195.571 27.606C195.571 28.362 195.253 28.974 194.617 29.442C193.981 29.898 193.141 30.126 192.097 30.126Z" fill="#222222"/>
</svg>
