<svg width="57" height="13" viewBox="0 0 57 13" fill="none" xmlns="http://www.w3.org/2000/svg">
<path d="M8.368 10.896C8.56 10.896 8.70933 10.944 8.816 11.04C8.92267 11.136 8.976 11.2693 8.976 11.44C8.976 11.6213 8.92267 11.76 8.816 11.856C8.70933 11.952 8.56 12 8.368 12H1.216C1.024 12 0.869333 11.9467 0.752 11.84C0.645333 11.7333 0.592 11.6 0.592 11.44C0.592 11.28 0.650667 11.1147 0.768 10.944L7.168 1.824H1.216C1.024 1.824 0.874667 1.776 0.768 1.68C0.661333 1.584 0.608 1.45067 0.608 1.28C0.608 1.09867 0.661333 0.959999 0.768 0.863999C0.874667 0.767999 1.024 0.719999 1.216 0.719999H8.192C8.384 0.719999 8.53333 0.773333 8.64 0.879999C8.75733 0.986666 8.816 1.12 8.816 1.28C8.816 1.42933 8.75733 1.58933 8.64 1.76L2.224 10.896H8.368ZM16.5758 10.192C16.6931 10.192 16.7944 10.24 16.8798 10.336C16.9651 10.432 17.0078 10.5547 17.0078 10.704C17.0078 10.9707 16.8211 11.216 16.4478 11.44C16.0638 11.664 15.6584 11.8347 15.2318 11.952C14.8051 12.0587 14.3891 12.112 13.9838 12.112C12.7784 12.112 11.8238 11.7547 11.1198 11.04C10.4264 10.3253 10.0798 9.33867 10.0798 8.08C10.0798 7.28 10.2344 6.576 10.5438 5.968C10.8531 5.34933 11.2851 4.86933 11.8398 4.528C12.4051 4.18667 13.0451 4.016 13.7598 4.016C14.7731 4.016 15.5784 4.34667 16.1758 5.008C16.7731 5.66933 17.0718 6.56533 17.0718 7.696C17.0718 7.90933 17.0291 8.064 16.9438 8.16C16.8584 8.256 16.7198 8.304 16.5278 8.304H11.3758C11.4718 10.1387 12.3411 11.056 13.9838 11.056C14.3998 11.056 14.7571 11.0027 15.0558 10.896C15.3544 10.7787 15.6744 10.624 16.0158 10.432C16.2931 10.272 16.4798 10.192 16.5758 10.192ZM13.7758 5.024C13.0931 5.024 12.5438 5.23733 12.1278 5.664C11.7224 6.09067 11.4824 6.69333 11.4078 7.472H15.9358C15.9144 6.68267 15.7171 6.08 15.3438 5.664C14.9704 5.23733 14.4478 5.024 13.7758 5.024ZM22.9013 4.016C24.7679 4.016 25.7013 5.04533 25.7013 7.104V11.44C25.7013 11.6427 25.6426 11.8027 25.5253 11.92C25.4186 12.0267 25.2639 12.08 25.0613 12.08C24.8586 12.08 24.6986 12.0267 24.5813 11.92C24.4639 11.8027 24.4053 11.6427 24.4053 11.44V7.184C24.4053 6.45867 24.2613 5.93067 23.9733 5.6C23.6959 5.26933 23.2479 5.104 22.6293 5.104C21.9146 5.104 21.3439 5.32267 20.9173 5.76C20.4906 6.19733 20.2773 6.78933 20.2773 7.536V11.44C20.2773 11.6427 20.2186 11.8027 20.1013 11.92C19.9946 12.0267 19.8399 12.08 19.6373 12.08C19.4346 12.08 19.2746 12.0267 19.1573 11.92C19.0399 11.8027 18.9813 11.6427 18.9813 11.44V4.688C18.9813 4.496 19.0399 4.34133 19.1573 4.224C19.2746 4.10667 19.4346 4.048 19.6373 4.048C19.8293 4.048 19.9786 4.10667 20.0853 4.224C20.2026 4.34133 20.2613 4.49067 20.2613 4.672V5.488C20.5173 5.008 20.8746 4.64533 21.3333 4.4C21.7919 4.144 22.3146 4.016 22.9013 4.016ZM34.107 10.192C34.2243 10.192 34.3257 10.24 34.411 10.336C34.4963 10.432 34.539 10.5547 34.539 10.704C34.539 10.9707 34.3523 11.216 33.979 11.44C33.595 11.664 33.1897 11.8347 32.763 11.952C32.3363 12.0587 31.9203 12.112 31.515 12.112C30.3097 12.112 29.355 11.7547 28.651 11.04C27.9577 10.3253 27.611 9.33867 27.611 8.08C27.611 7.28 27.7657 6.576 28.075 5.968C28.3843 5.34933 28.8163 4.86933 29.371 4.528C29.9363 4.18667 30.5763 4.016 31.291 4.016C32.3043 4.016 33.1097 4.34667 33.707 5.008C34.3043 5.66933 34.603 6.56533 34.603 7.696C34.603 7.90933 34.5603 8.064 34.475 8.16C34.3897 8.256 34.251 8.304 34.059 8.304H28.907C29.003 10.1387 29.8723 11.056 31.515 11.056C31.931 11.056 32.2883 11.0027 32.587 10.896C32.8857 10.7787 33.2057 10.624 33.547 10.432C33.8243 10.272 34.011 10.192 34.107 10.192ZM31.307 5.024C30.6243 5.024 30.075 5.23733 29.659 5.664C29.2537 6.09067 29.0137 6.69333 28.939 7.472H33.467C33.4457 6.68267 33.2483 6.08 32.875 5.664C32.5017 5.23733 31.979 5.024 31.307 5.024ZM42.4649 4.208C42.6462 4.208 42.7849 4.256 42.8809 4.352C42.9769 4.448 43.0249 4.576 43.0249 4.736V11.44C43.0249 11.6427 42.9609 11.8027 42.8329 11.92C42.7155 12.0267 42.5662 12.08 42.3849 12.08C42.1929 12.08 42.0329 12.0267 41.9049 11.92C41.7875 11.8027 41.7289 11.6427 41.7289 11.44V5.232H38.2249V11.44C38.2249 11.6427 38.1609 11.8027 38.0329 11.92C37.9155 12.0267 37.7662 12.08 37.5849 12.08C37.3929 12.08 37.2329 12.0267 37.1049 11.92C36.9875 11.8027 36.9289 11.6427 36.9289 11.44V5.232H35.8569C35.6755 5.232 35.5315 5.18933 35.4249 5.104C35.3289 5.008 35.2809 4.88533 35.2809 4.736C35.2809 4.576 35.3289 4.448 35.4249 4.352C35.5315 4.256 35.6755 4.208 35.8569 4.208H36.9289V3.936C36.9289 2.976 37.1689 2.224 37.6489 1.68C38.1289 1.12533 38.8169 0.810666 39.7129 0.735999L40.0969 0.704C40.6089 0.661333 40.8649 0.821333 40.8649 1.184C40.8649 1.49333 40.6835 1.66933 40.3209 1.712L39.9369 1.744C39.3715 1.78667 38.9449 1.968 38.6569 2.288C38.3689 2.59733 38.2249 3.06667 38.2249 3.696V4.208H42.4649ZM42.3849 0.752C42.6302 0.752 42.8329 0.826667 42.9929 0.976C43.1635 1.12533 43.2489 1.31733 43.2489 1.552C43.2489 1.79733 43.1689 1.99467 43.0089 2.144C42.8489 2.29333 42.6409 2.368 42.3849 2.368C42.1289 2.368 41.9209 2.29333 41.7609 2.144C41.6009 1.99467 41.5209 1.79733 41.5209 1.552C41.5209 1.31733 41.6009 1.12533 41.7609 0.976C41.9209 0.826667 42.1289 0.752 42.3849 0.752ZM49.0344 11.056C49.4077 11.088 49.5944 11.2587 49.5944 11.568C49.5944 11.7493 49.525 11.888 49.3864 11.984C49.2584 12.0693 49.061 12.1013 48.7944 12.08L48.3624 12.048C47.509 11.984 46.8797 11.728 46.4744 11.28C46.069 10.832 45.8664 10.1547 45.8664 9.248V5.232H44.7944C44.613 5.232 44.469 5.18933 44.3624 5.104C44.2664 5.008 44.2184 4.88533 44.2184 4.736C44.2184 4.576 44.2664 4.448 44.3624 4.352C44.469 4.256 44.613 4.208 44.7944 4.208H45.8664V2.4C45.8664 2.19733 45.925 2.04267 46.0424 1.936C46.1597 1.81867 46.3197 1.76 46.5224 1.76C46.7144 1.76 46.869 1.81867 46.9864 1.936C47.1037 2.04267 47.1624 2.19733 47.1624 2.4V4.208H48.9384C49.109 4.208 49.2424 4.256 49.3384 4.352C49.445 4.448 49.4984 4.576 49.4984 4.736C49.4984 4.88533 49.445 5.008 49.3384 5.104C49.2424 5.18933 49.109 5.232 48.9384 5.232H47.1624V9.312C47.1624 9.89867 47.2797 10.3253 47.5144 10.592C47.7597 10.848 48.1224 10.992 48.6024 11.024L49.0344 11.056ZM53.4959 12.112C53.0052 12.112 52.5359 12.0533 52.0879 11.936C51.6505 11.8187 51.2612 11.6533 50.9199 11.44C50.7279 11.312 50.5892 11.1947 50.5039 11.088C50.4292 10.9707 50.3919 10.832 50.3919 10.672C50.3919 10.5333 50.4292 10.4213 50.5039 10.336C50.5892 10.24 50.6959 10.192 50.8239 10.192C50.9519 10.192 51.1385 10.272 51.3839 10.432C51.7039 10.624 52.0185 10.7787 52.3279 10.896C52.6479 11.0027 53.0425 11.056 53.5119 11.056C54.0879 11.056 54.5359 10.9547 54.8559 10.752C55.1759 10.5493 55.3359 10.256 55.3359 9.872C55.3359 9.63733 55.2772 9.45067 55.1599 9.312C55.0425 9.16267 54.8399 9.03467 54.5519 8.928C54.2639 8.81067 53.8425 8.69333 53.2879 8.576C52.3492 8.37333 51.6772 8.10133 51.2719 7.76C50.8665 7.41867 50.6639 6.95467 50.6639 6.368C50.6639 5.90933 50.7919 5.504 51.0479 5.152C51.3039 4.8 51.6559 4.52267 52.1039 4.32C52.5625 4.11733 53.0799 4.016 53.6559 4.016C54.0719 4.016 54.4719 4.07467 54.8559 4.192C55.2505 4.29867 55.5972 4.45333 55.8959 4.656C56.2585 4.912 56.4399 5.17867 56.4399 5.456C56.4399 5.59467 56.3972 5.712 56.3119 5.808C56.2265 5.904 56.1252 5.952 56.0079 5.952C55.8799 5.952 55.6879 5.86133 55.4319 5.68C55.1332 5.488 54.8505 5.33867 54.5839 5.232C54.3172 5.12533 53.9865 5.072 53.5919 5.072C53.0905 5.072 52.6852 5.184 52.3759 5.408C52.0772 5.632 51.9279 5.93067 51.9279 6.304C51.9279 6.53867 51.9812 6.73067 52.0879 6.88C52.2052 7.01867 52.3919 7.14667 52.6479 7.264C52.9145 7.37067 53.2932 7.47733 53.7839 7.584C54.5092 7.744 55.0692 7.92 55.4639 8.112C55.8692 8.304 56.1572 8.53867 56.3279 8.816C56.4985 9.09333 56.5839 9.44533 56.5839 9.872C56.5839 10.544 56.3012 11.088 55.7359 11.504C55.1705 11.9093 54.4239 12.112 53.4959 12.112Z" fill="#222222"/>
</svg>
